{"title":"Men.In.Black.3.2012.HD.TS.720p.XviD.AC3-XTREME","uid":7369960,"size":4084747412,"categoryP":"video","categoryS":"hd___movies","magnet":"?xt=urn:btih:0b992ac7e33332d9b9778ebe60b776c4fce53890&amp;dn=Men.In.Black.3.2012.HD.TS.720p.XviD.AC3-XTREME&amp;tr=udp%3A%2F%2Ftracker.openbittorrent.com%3A80&amp;tr=udp%3A%2F%2Fopen.demonii.com%3A1337&amp;tr=udp%3A%2F%2Ftracker.coppersurfer.tk%3A6969&amp;tr=udp%3A%2F%2Fexodus.desync.com%3A6969","seeders":1,"leechers":1,"uploader":"tykoon123","files":4,"time":1340205820,"description":"poster: &lt;a href=&quot;\nhttp://imgh.us/MIB3+Keyart.jpg&quot; rel=&quot;nofollow&quot; target=&quot;_NEW&quot;&gt;\nhttp://imgh.us/MIB3+Keyart.jpg&lt;/a&gt;\n\n\nAgent J travels in time to MIB's early\nyears in the 1960s, to stop an alien\nfrom assassinating his friend Agent\nK and changing history.\n\nDirector:\nBarry Sonnenfeld\n\nWriters:\nEtan Cohen, Lowell Cunningham (Malibu comic)\n\nStars:\nWill Smith, Tommy Lee Jones and Josh Brolin\n &lt;a href=&quot;\nhttp://www.imdb.com/title/tt1409024/&quot; rel=&quot;nofollow&quot; target=&quot;_NEW&quot;&gt;\nhttp://www.imdb.com/title/tt1409024/&lt;/a&gt; \n\nGeneral\nComplete name : /mnt/sdc1/rahulraj/files/Men.In.Black.3.2012.HD.TS.720p.XviD.AC3-XTREME/Men.In.Black.3.2012.HD.TS.720p.XviD.AC3-XTREME.avi\nFormat : AVI\nFormat/Info : Audio Video Interleave\nFormat profile : OpenDML\nFile size : 3.73 GiB\nDuration : 1h 37mn\nOverall bit rate : 5 454 Kbps\nWriting library : VirtualDub build 31536/release\n\nVideo\nID : 0\nFormat : MPEG-4 Visual\nFormat profile : Advanced Simple@L5\nFormat settings, BVOP : 2\nFormat settings, QPel : No\nFormat settings, GMC : No warppoints\nFormat settings, Matrix : Default (H.263)\nMuxing mode : Packed bitstream\nCodec ID : XVID\nCodec ID/Hint : XviD\nDuration : 1h 37mn\nBit rate : 4 997 Kbps\nWidth : 1 280 pixels\nHeight : 540 pixels\nDisplay aspect ratio : 2.35:1\nFrame rate : 23.976 fps\nColor space : YUV\nChroma subsampling : 4:2:0\nBit depth : 8 bits\nScan type : Progressive\nCompression mode : Lossy\nBits/(Pixel*Frame) : 0.302\nStream size : 3.41 GiB (92%)\nWriting library : XviD 64\n\nAudio\nID : 1\nFormat : AC-3\nFormat/Info : Audio Coding 3\nMode extension : CM (complete main)\nCodec ID : 2000\nDuration : 1h 37mn\nBit rate mode : Constant\nBit rate : 448 Kbps\nChannel(s) : 6 channels\nChannel positions : Front: L C R, Side: L R, LFE\nSampling rate : 48.0 KHz\nBit depth : 16 bits\nCompression mode : Lossy\nStream size : 313 MiB (8%)\nAlignment : Split accross interleaves\nInterleave, duration : 42 ms (1.00 video frame)\nInterleave, preload duration : 500 ms\n\nSources......: Vid - ELEK HD\n              AUD - ADTRG\n\n\n\nSCREENS: &lt;a href=&quot;\nhttp://img210.imageshack.us/img210/5489/epfx9.png&quot; rel=&quot;nofollow&quot; target=&quot;_NEW&quot;&gt;\nhttp://img210.imageshack.us/img210/5489/epfx9.png&lt;/a&gt; &lt;a href=&quot;\nhttp://img846.imageshack.us/img846/7458/yer9z.png&quot; rel=&quot;nofollow&quot; target=&quot;_NEW&quot;&gt;\nhttp://img846.imageshack.us/img846/7458/yer9z.png&lt;/a&gt; &lt;a href=&quot;\nhttp://img37.imageshack.us/img37/8428/ljclv.png&quot; rel=&quot;nofollow&quot; target=&quot;_NEW&quot;&gt;\nhttp://img37.imageshack.us/img37/8428/ljclv.png&lt;/a&gt; &lt;a href=&quot;\nhttp://img194.imageshack.us/img194/4507/gaivg.jpg&quot; rel=&quot;nofollow&quot; target=&quot;_NEW&quot;&gt;\nhttp://img194.imageshack.us/img194/4507/gaivg.jpg&lt;/a&gt; &lt;a href=&quot;\nhttp://img17.imageshack.us/img17/5323/ri19z.png&quot; rel=&quot;nofollow&quot; target=&quot;_NEW&quot;&gt;\nhttp://img17.imageshack.us/img17/5323/ri19z.png&lt;/a&gt;\n","torrent":{"xt":"urn:btih:0b992ac7e33332d9b9778ebe60b776c4fce53890","amp;dn":"Men.In.Black.3.2012.HD.TS.720p.XviD.AC3-XTREME","amp;tr":["udp%3A%2F%2Ftracker.openbittorrent.com%3A80","udp%3A%2F%2Fopen.demonii.com%3A1337","udp%3A%2F%2Ftracker.coppersurfer.tk%3A6969","udp%3A%2F%2Fexodus.desync.com%3A6969"],"infoHash":"0b992ac7e33332d9b9778ebe60b776c4fce53890","infoHashBuffer":{"type":"Buffer","data":[11,153,42,199,227,51,50,217,185,119,142,190,96,183,118,196,252,229,56,144]},"announce":[],"urlList":[]}}